<svg width="39" height="28" viewBox="0 0 39 28" fill="none" xmlns="http://www.w3.org/2000/svg">
<path d="M36.7717 9H28.9942C28.5358 9 28.0962 9.18226 27.772 9.50668C27.4479 9.8311 27.2658 10.2711 27.2658 10.7299C27.2658 11.1887 27.4479 11.6287 27.772 11.9531C28.0962 12.2776 28.5358 12.4598 28.9942 12.4598H32.5372L25.5634 19.094L20.2747 13.8005C19.9728 13.4989 19.5702 13.3197 19.1442 13.2973C18.7183 13.275 18.2991 13.4111 17.9674 13.6794L4.1407 24.9239C3.78431 25.2129 3.55723 25.6318 3.50943 26.0884C3.46162 26.5451 3.59699 27.002 3.88577 27.3587C4.17456 27.7154 4.59309 27.9427 5.04929 27.9906C5.5055 28.0384 5.96201 27.9029 6.31841 27.6139L18.9353 17.3641L24.319 22.7528C24.6417 23.0672 25.0742 23.2431 25.5245 23.2431C25.9748 23.2431 26.4074 23.0672 26.73 22.7528L35.0433 14.8558V18.5145C35.0433 18.9733 35.2254 19.4133 35.5495 19.7378C35.8737 20.0622 36.3133 20.2444 36.7717 20.2444C37.23 20.2444 37.6697 20.0622 37.9938 19.7378C38.3179 19.4133 38.5 18.9733 38.5 18.5145V10.7299C38.5 10.2711 38.3179 9.8311 37.9938 9.50668C37.6697 9.18226 37.23 9 36.7717 9Z" fill="white"/>
<path d="M10.9571 4.45714H8.04286V1.54286C8.04286 1.13367 7.88031 0.741234 7.59096 0.451892C7.30162 0.162551 6.90919 0 6.5 0C6.09081 0 5.69838 0.162551 5.40904 0.451892C5.11969 0.741234 4.95714 1.13367 4.95714 1.54286V4.45714H2.04286C1.63367 4.45714 1.24123 4.61969 0.951892 4.90904C0.662551 5.19838 0.5 5.59081 0.5 6C0.5 6.40919 0.662551 6.80162 0.951892 7.09096C1.24123 7.38031 1.63367 7.54286 2.04286 7.54286H4.95714V10.4571C4.95714 10.8663 5.11969 11.2588 5.40904 11.5481C5.69838 11.8375 6.09081 12 6.5 12C6.90919 12 7.30162 11.8375 7.59096 11.5481C7.88031 11.2588 8.04286 10.8663 8.04286 10.4571V7.54286H10.9571C11.1598 7.54286 11.3604 7.50295 11.5476 7.42541C11.7348 7.34788 11.9048 7.23423 12.0481 7.09096C12.1914 6.9477 12.305 6.77761 12.3826 6.59043C12.4601 6.40324 12.5 6.20261 12.5 6C12.5 5.79739 12.4601 5.59676 12.3826 5.40957C12.305 5.22239 12.1914 5.0523 12.0481 4.90904C11.9048 4.76577 11.7348 4.65212 11.5476 4.57459C11.3604 4.49705 11.1598 4.45714 10.9571 4.45714Z" fill="white"/>
</svg>
