<svg width="60" height="60" viewBox="0 0 60 60" fill="none" xmlns="http://www.w3.org/2000/svg">
<path d="M22.1538 39.6923C23.1734 39.6923 23.9999 38.8658 23.9999 37.8462C23.9999 36.8266 23.1734 36 22.1538 36C21.1342 36 20.3076 36.8266 20.3076 37.8462C20.3076 38.8658 21.1342 39.6923 22.1538 39.6923Z" fill="#8CADE8"/>
<path d="M18.4615 43.3857C19.4811 43.3857 20.3077 42.5591 20.3077 41.5395C20.3077 40.5199 19.4811 39.6934 18.4615 39.6934C17.4419 39.6934 16.6154 40.5199 16.6154 41.5395C16.6154 42.5591 17.4419 43.3857 18.4615 43.3857Z" fill="#8CADE8"/>
<path d="M14.7693 47.0771C15.7889 47.0771 16.6154 46.2505 16.6154 45.2309C16.6154 44.2113 15.7889 43.3848 14.7693 43.3848C13.7496 43.3848 12.9231 44.2113 12.9231 45.2309C12.9231 46.2505 13.7496 47.0771 14.7693 47.0771Z" fill="#8CADE8"/>
<path d="M11.077 50.7704C12.0966 50.7704 12.9231 49.9439 12.9231 48.9243C12.9231 47.9047 12.0966 47.0781 11.077 47.0781C10.0574 47.0781 9.23083 47.9047 9.23083 48.9243C9.23083 49.9439 10.0574 50.7704 11.077 50.7704Z" fill="#8CADE8"/>
<path d="M7.38461 54.4618C8.40421 54.4618 9.23076 53.6353 9.23076 52.6157C9.23076 51.5961 8.40421 50.7695 7.38461 50.7695C6.365 50.7695 5.53845 51.5961 5.53845 52.6157C5.53845 53.6353 6.365 54.4618 7.38461 54.4618Z" fill="#8CADE8"/>
<path d="M1.84615 54.4618C2.86576 54.4618 3.69231 53.6353 3.69231 52.6157C3.69231 51.5961 2.86576 50.7695 1.84615 50.7695C0.826552 50.7695 0 51.5961 0 52.6157C0 53.6353 0.826552 54.4618 1.84615 54.4618Z" fill="#8CADE8"/>
<path d="M1.84615 48.9228C2.86576 48.9228 3.69231 48.0962 3.69231 47.0766C3.69231 46.057 2.86576 45.2305 1.84615 45.2305C0.826552 45.2305 0 46.057 0 47.0766C0 48.0962 0.826552 48.9228 1.84615 48.9228Z" fill="#8CADE8"/>
<path d="M1.84615 43.3857C2.86576 43.3857 3.69231 42.5591 3.69231 41.5395C3.69231 40.5199 2.86576 39.6934 1.84615 39.6934C0.826552 39.6934 0 40.5199 0 41.5395C0 42.5591 0.826552 43.3857 1.84615 43.3857Z" fill="#8CADE8"/>
<path d="M7.38461 59.999C8.40421 59.999 9.23076 59.1724 9.23076 58.1528C9.23076 57.1332 8.40421 56.3066 7.38461 56.3066C6.365 56.3066 5.53845 57.1332 5.53845 58.1528C5.53845 59.1724 6.365 59.999 7.38461 59.999Z" fill="#8CADE8"/>
<path d="M1.84615 59.999C2.86576 59.999 3.69231 59.1724 3.69231 58.1528C3.69231 57.1332 2.86576 56.3066 1.84615 56.3066C0.826552 56.3066 0 57.1332 0 58.1528C0 59.1724 0.826552 59.999 1.84615 59.999Z" fill="#8CADE8"/>
<path d="M12.9231 59.999C13.9427 59.999 14.7692 59.1724 14.7692 58.1528C14.7692 57.1332 13.9427 56.3066 12.9231 56.3066C11.9035 56.3066 11.0769 57.1332 11.0769 58.1528C11.0769 59.1724 11.9035 59.999 12.9231 59.999Z" fill="#8CADE8"/>
<path d="M18.4615 59.999C19.4811 59.999 20.3077 59.1724 20.3077 58.1528C20.3077 57.1332 19.4811 56.3066 18.4615 56.3066C17.4419 56.3066 16.6154 57.1332 16.6154 58.1528C16.6154 59.1724 17.4419 59.999 18.4615 59.999Z" fill="#8CADE8"/>
<path d="M22.1538 20.3077C23.1734 20.3077 23.9999 21.1342 23.9999 22.1538C23.9999 23.1734 23.1734 24 22.1538 24C21.1342 24 20.3076 23.1734 20.3076 22.1538C20.3076 21.1342 21.1342 20.3077 22.1538 20.3077Z" fill="#8CADE8"/>
<path d="M18.4615 16.6143C19.4811 16.6143 20.3077 17.4409 20.3077 18.4605C20.3077 19.4801 19.4811 20.3066 18.4615 20.3066C17.4419 20.3066 16.6154 19.4801 16.6154 18.4605C16.6154 17.4409 17.4419 16.6143 18.4615 16.6143Z" fill="#8CADE8"/>
<path d="M14.7693 12.9229C15.7889 12.9229 16.6154 13.7495 16.6154 14.7691C16.6154 15.7887 15.7889 16.6152 14.7693 16.6152C13.7496 16.6152 12.9231 15.7887 12.9231 14.7691C12.9231 13.7495 13.7496 12.9229 14.7693 12.9229Z" fill="#8CADE8"/>
<path d="M11.077 9.22957C12.0966 9.22957 12.9231 10.0561 12.9231 11.0757C12.9231 12.0953 12.0966 12.9219 11.077 12.9219C10.0574 12.9219 9.23083 12.0953 9.23083 11.0757C9.23083 10.0561 10.0574 9.22957 11.077 9.22957Z" fill="#8CADE8"/>
<path d="M7.38461 5.53816C8.40421 5.53816 9.23076 6.36471 9.23076 7.38431C9.23076 8.40392 8.40421 9.23047 7.38461 9.23047C6.365 9.23047 5.53845 8.40392 5.53845 7.38431C5.53845 6.36471 6.365 5.53816 7.38461 5.53816Z" fill="#8CADE8"/>
<path d="M1.84615 5.53816C2.86576 5.53816 3.69231 6.36471 3.69231 7.38431C3.69231 8.40392 2.86576 9.23047 1.84615 9.23047C0.826552 9.23047 0 8.40392 0 7.38431C0 6.36471 0.826552 5.53816 1.84615 5.53816Z" fill="#8CADE8"/>
<path d="M1.84615 11.0772C2.86576 11.0772 3.69231 11.9038 3.69231 12.9234C3.69231 13.943 2.86576 14.7695 1.84615 14.7695C0.826552 14.7695 0 13.943 0 12.9234C0 11.9038 0.826552 11.0772 1.84615 11.0772Z" fill="#8CADE8"/>
<path d="M1.84615 16.6143C2.86576 16.6143 3.69231 17.4409 3.69231 18.4605C3.69231 19.4801 2.86576 20.3066 1.84615 20.3066C0.826552 20.3066 0 19.4801 0 18.4605C0 17.4409 0.826552 16.6143 1.84615 16.6143Z" fill="#8CADE8"/>
<path d="M7.38461 0.00104952C8.40421 0.00104952 9.23076 0.827601 9.23076 1.8472C9.23076 2.86681 8.40421 3.69336 7.38461 3.69336C6.365 3.69336 5.53845 2.86681 5.53845 1.8472C5.53845 0.827601 6.365 0.00104952 7.38461 0.00104952Z" fill="#8CADE8"/>
<path d="M1.84615 0.00104952C2.86576 0.00104952 3.69231 0.827601 3.69231 1.8472C3.69231 2.86681 2.86576 3.69336 1.84615 3.69336C0.826552 3.69336 0 2.86681 0 1.8472C0 0.827601 0.826552 0.00104952 1.84615 0.00104952Z" fill="#8CADE8"/>
<path d="M12.9231 0.00104952C13.9427 0.00104952 14.7692 0.827601 14.7692 1.8472C14.7692 2.86681 13.9427 3.69336 12.9231 3.69336C11.9035 3.69336 11.0769 2.86681 11.0769 1.8472C11.0769 0.827601 11.9035 0.00104952 12.9231 0.00104952Z" fill="#8CADE8"/>
<path d="M18.4615 0.00104952C19.4811 0.00104952 20.3077 0.827601 20.3077 1.8472C20.3077 2.86681 19.4811 3.69336 18.4615 3.69336C17.4419 3.69336 16.6154 2.86681 16.6154 1.8472C16.6154 0.827601 17.4419 0.00104952 18.4615 0.00104952Z" fill="#8CADE8"/>
<path d="M37.8462 39.6923C36.8266 39.6923 36.0001 38.8658 36.0001 37.8462C36.0001 36.8266 36.8266 36 37.8462 36C38.8658 36 39.6924 36.8266 39.6924 37.8462C39.6924 38.8658 38.8658 39.6923 37.8462 39.6923Z" fill="#8CADE8"/>
<path d="M41.5385 43.3857C40.5189 43.3857 39.6923 42.5591 39.6923 41.5395C39.6923 40.5199 40.5189 39.6934 41.5385 39.6934C42.5581 39.6934 43.3846 40.5199 43.3846 41.5395C43.3846 42.5591 42.5581 43.3857 41.5385 43.3857Z" fill="#8CADE8"/>
<path d="M45.2307 47.0771C44.2111 47.0771 43.3846 46.2505 43.3846 45.2309C43.3846 44.2113 44.2111 43.3848 45.2307 43.3848C46.2504 43.3848 47.0769 44.2113 47.0769 45.2309C47.0769 46.2505 46.2504 47.0771 45.2307 47.0771Z" fill="#8CADE8"/>
<path d="M48.923 50.7704C47.9034 50.7704 47.0769 49.9439 47.0769 48.9243C47.0769 47.9047 47.9034 47.0781 48.923 47.0781C49.9426 47.0781 50.7692 47.9047 50.7692 48.9243C50.7692 49.9439 49.9426 50.7704 48.923 50.7704Z" fill="#8CADE8"/>
<path d="M52.6154 54.4618C51.5958 54.4618 50.7692 53.6353 50.7692 52.6157C50.7692 51.5961 51.5958 50.7695 52.6154 50.7695C53.635 50.7695 54.4615 51.5961 54.4615 52.6157C54.4615 53.6353 53.635 54.4618 52.6154 54.4618Z" fill="#8CADE8"/>
<path d="M58.1538 54.4618C57.1342 54.4618 56.3077 53.6353 56.3077 52.6157C56.3077 51.5961 57.1342 50.7695 58.1538 50.7695C59.1734 50.7695 60 51.5961 60 52.6157C60 53.6353 59.1734 54.4618 58.1538 54.4618Z" fill="#8CADE8"/>
<path d="M58.1538 48.9228C57.1342 48.9228 56.3077 48.0962 56.3077 47.0766C56.3077 46.057 57.1342 45.2305 58.1538 45.2305C59.1734 45.2305 60 46.057 60 47.0766C60 48.0962 59.1734 48.9228 58.1538 48.9228Z" fill="#8CADE8"/>
<path d="M58.1538 43.3857C57.1342 43.3857 56.3077 42.5591 56.3077 41.5395C56.3077 40.5199 57.1342 39.6934 58.1538 39.6934C59.1734 39.6934 60 40.5199 60 41.5395C60 42.5591 59.1734 43.3857 58.1538 43.3857Z" fill="#8CADE8"/>
<path d="M52.6154 59.999C51.5958 59.999 50.7692 59.1724 50.7692 58.1528C50.7692 57.1332 51.5958 56.3066 52.6154 56.3066C53.635 56.3066 54.4615 57.1332 54.4615 58.1528C54.4615 59.1724 53.635 59.999 52.6154 59.999Z" fill="#8CADE8"/>
<path d="M58.1538 59.999C57.1342 59.999 56.3077 59.1724 56.3077 58.1528C56.3077 57.1332 57.1342 56.3066 58.1538 56.3066C59.1734 56.3066 60 57.1332 60 58.1528C60 59.1724 59.1734 59.999 58.1538 59.999Z" fill="#8CADE8"/>
<path d="M47.0769 59.999C46.0573 59.999 45.2308 59.1724 45.2308 58.1528C45.2308 57.1332 46.0573 56.3066 47.0769 56.3066C48.0965 56.3066 48.9231 57.1332 48.9231 58.1528C48.9231 59.1724 48.0965 59.999 47.0769 59.999Z" fill="#8CADE8"/>
<path d="M41.5385 59.999C40.5189 59.999 39.6923 59.1724 39.6923 58.1528C39.6923 57.1332 40.5189 56.3066 41.5385 56.3066C42.5581 56.3066 43.3846 57.1332 43.3846 58.1528C43.3846 59.1724 42.5581 59.999 41.5385 59.999Z" fill="#8CADE8"/>
<path d="M37.8462 20.3077C36.8266 20.3077 36.0001 21.1342 36.0001 22.1538C36.0001 23.1734 36.8266 24 37.8462 24C38.8658 24 39.6924 23.1734 39.6924 22.1538C39.6924 21.1342 38.8658 20.3077 37.8462 20.3077Z" fill="#8CADE8"/>
<path d="M41.5385 16.6143C40.5189 16.6143 39.6923 17.4409 39.6923 18.4605C39.6923 19.4801 40.5189 20.3066 41.5385 20.3066C42.5581 20.3066 43.3846 19.4801 43.3846 18.4605C43.3846 17.4409 42.5581 16.6143 41.5385 16.6143Z" fill="#8CADE8"/>
<path d="M45.2307 12.9229C44.2111 12.9229 43.3846 13.7495 43.3846 14.7691C43.3846 15.7887 44.2111 16.6152 45.2307 16.6152C46.2504 16.6152 47.0769 15.7887 47.0769 14.7691C47.0769 13.7495 46.2504 12.9229 45.2307 12.9229Z" fill="#8CADE8"/>
<path d="M48.923 9.22957C47.9034 9.22957 47.0769 10.0561 47.0769 11.0757C47.0769 12.0953 47.9034 12.9219 48.923 12.9219C49.9426 12.9219 50.7692 12.0953 50.7692 11.0757C50.7692 10.0561 49.9426 9.22957 48.923 9.22957Z" fill="#8CADE8"/>
<path d="M52.6154 5.53816C51.5958 5.53816 50.7692 6.36471 50.7692 7.38431C50.7692 8.40392 51.5958 9.23047 52.6154 9.23047C53.635 9.23047 54.4615 8.40392 54.4615 7.38431C54.4615 6.36471 53.635 5.53816 52.6154 5.53816Z" fill="#8CADE8"/>
<path d="M58.1538 5.53816C57.1342 5.53816 56.3077 6.36471 56.3077 7.38431C56.3077 8.40392 57.1342 9.23047 58.1538 9.23047C59.1734 9.23047 60 8.40392 60 7.38431C60 6.36471 59.1734 5.53816 58.1538 5.53816Z" fill="#8CADE8"/>
<path d="M58.1538 11.0772C57.1342 11.0772 56.3077 11.9038 56.3077 12.9234C56.3077 13.943 57.1342 14.7695 58.1538 14.7695C59.1734 14.7695 60 13.943 60 12.9234C60 11.9038 59.1734 11.0772 58.1538 11.0772Z" fill="#8CADE8"/>
<path d="M58.1538 16.6143C57.1342 16.6143 56.3077 17.4409 56.3077 18.4605C56.3077 19.4801 57.1342 20.3066 58.1538 20.3066C59.1734 20.3066 60 19.4801 60 18.4605C60 17.4409 59.1734 16.6143 58.1538 16.6143Z" fill="#8CADE8"/>
<path d="M52.6154 0.00104952C51.5958 0.00104952 50.7692 0.827601 50.7692 1.8472C50.7692 2.86681 51.5958 3.69336 52.6154 3.69336C53.635 3.69336 54.4615 2.86681 54.4615 1.8472C54.4615 0.827601 53.635 0.00104952 52.6154 0.00104952Z" fill="#8CADE8"/>
<path d="M58.1538 0.00104952C57.1342 0.00104952 56.3077 0.827601 56.3077 1.8472C56.3077 2.86681 57.1342 3.69336 58.1538 3.69336C59.1734 3.69336 60 2.86681 60 1.8472C60 0.827601 59.1734 0.00104952 58.1538 0.00104952Z" fill="#8CADE8"/>
<path d="M47.0769 0.00104952C46.0573 0.00104952 45.2308 0.827601 45.2308 1.8472C45.2308 2.86681 46.0573 3.69336 47.0769 3.69336C48.0965 3.69336 48.9231 2.86681 48.9231 1.8472C48.9231 0.827601 48.0965 0.00104952 47.0769 0.00104952Z" fill="#8CADE8"/>
<path d="M41.5385 0.00104952C40.5189 0.00104952 39.6923 0.827601 39.6923 1.8472C39.6923 2.86681 40.5189 3.69336 41.5385 3.69336C42.5581 3.69336 43.3846 2.86681 43.3846 1.8472C43.3846 0.827601 42.5581 0.00104952 41.5385 0.00104952Z" fill="#8CADE8"/>
</svg>
