<svg width="26" height="26" viewBox="0 0 26 26" fill="none" xmlns="http://www.w3.org/2000/svg">
<path fill-rule="evenodd" clip-rule="evenodd" d="M19.0004 8.3336C19.3685 7.96544 19.3685 7.36854 19.0004 7.00038C18.6322 6.63222 18.0353 6.63222 17.6672 7.00038L13.0047 11.6629L8.34141 6.99962C7.97326 6.63146 7.37635 6.63146 7.00819 6.99962C6.64004 7.36778 6.64004 7.96468 7.00819 8.33284L11.6715 12.9961L7.0014 17.6661C6.63324 18.0343 6.63325 18.6312 7.0014 18.9994C7.36956 19.3675 7.96647 19.3675 8.33462 18.9994L13.0047 14.3293L17.674 18.9986C18.0421 19.3668 18.639 19.3668 19.0072 18.9986C19.3753 18.6304 19.3753 18.0335 19.0072 17.6654L14.3379 12.9961L19.0004 8.3336Z" fill="#98A0A9"/>
<path d="M19.0004 8.3336L18.6468 7.98005L19.0004 8.3336ZM17.6672 7.00038L17.3136 6.64683L17.6672 7.00038ZM13.0047 11.6629L12.6511 12.0164L13.0047 12.37L13.3582 12.0164L13.0047 11.6629ZM11.6715 12.9961L12.025 13.3496L12.3786 12.9961L12.025 12.6425L11.6715 12.9961ZM13.0047 14.3293L13.3582 13.9758L13.0047 13.6222L12.6511 13.9758L13.0047 14.3293ZM14.3379 12.9961L13.9843 12.6425L13.6308 12.9961L13.9843 13.3496L14.3379 12.9961ZM18.6468 7.35394C18.8197 7.52683 18.8197 7.80715 18.6468 7.98005L19.3539 8.68716C19.9174 8.12373 19.9174 7.21025 19.3539 6.64683L18.6468 7.35394ZM18.0207 7.35393C18.1936 7.18104 18.4739 7.18104 18.6468 7.35394L19.3539 6.64683C18.7905 6.08341 17.877 6.08341 17.3136 6.64683L18.0207 7.35393ZM13.3582 12.0164L18.0207 7.35393L17.3136 6.64683L12.6511 11.3093L13.3582 12.0164ZM7.98786 7.35317L12.6511 12.0164L13.3582 11.3093L8.69497 6.64606L7.98786 7.35317ZM7.36175 7.35317C7.53464 7.18027 7.81497 7.18027 7.98786 7.35317L8.69497 6.64606C8.13155 6.08264 7.21806 6.08264 6.65464 6.64606L7.36175 7.35317ZM7.36175 7.97928C7.18885 7.80639 7.18885 7.52607 7.36175 7.35317L6.65464 6.64606C6.09122 7.20948 6.09122 8.12297 6.65464 8.68639L7.36175 7.97928ZM12.025 12.6425L7.36175 7.97928L6.65464 8.68639L11.3179 13.3496L12.025 12.6425ZM7.35496 18.0197L12.025 13.3496L11.3179 12.6425L6.64785 17.3126L7.35496 18.0197ZM7.35496 18.6458C7.18206 18.4729 7.18206 18.1926 7.35496 18.0197L6.64785 17.3126C6.08443 17.876 6.08443 18.7895 6.64785 19.3529L7.35496 18.6458ZM7.98107 18.6458C7.80817 18.8187 7.52785 18.8187 7.35496 18.6458L6.64785 19.3529C7.21127 19.9163 8.12476 19.9163 8.68818 19.3529L7.98107 18.6458ZM12.6511 13.9758L7.98107 18.6458L8.68818 19.3529L13.3582 14.6829L12.6511 13.9758ZM18.0275 18.645L13.3582 13.9758L12.6511 14.6829L17.3204 19.3522L18.0275 18.645ZM18.6536 18.645C18.4807 18.8179 18.2004 18.8179 18.0275 18.645L17.3204 19.3522C17.8838 19.9156 18.7973 19.9156 19.3607 19.3521L18.6536 18.645ZM18.6536 18.0189C18.8265 18.1918 18.8265 18.4721 18.6536 18.645L19.3607 19.3521C19.9241 18.7887 19.9241 17.8752 19.3607 17.3118L18.6536 18.0189ZM13.9843 13.3496L18.6536 18.0189L19.3607 17.3118L14.6914 12.6425L13.9843 13.3496ZM18.6468 7.98005L13.9843 12.6425L14.6914 13.3496L19.3539 8.68716L18.6468 7.98005Z" fill="#98A0A9"/>
</svg>
