<svg width="20" height="20" viewBox="0 0 20 20" fill="none" xmlns="http://www.w3.org/2000/svg">
<path fill-rule="evenodd" clip-rule="evenodd" d="M9.48573 0V4.14074C6.6749 4.38583 4.42386 6.61368 4.1452 9.41329H0C0.140933 6.95933 1.16374 4.67191 2.917 2.91965C4.68729 1.15042 7.00334 0.124969 9.48573 0ZM10.6567 15.8452V19.9913C13.0851 19.8349 15.3466 18.8157 17.083 17.0804C18.8363 15.3281 19.859 13.0407 20 10.5867H15.8548C15.5808 13.3389 13.4008 15.5385 10.6567 15.8452ZM4.14516 10.5867H0C0.140933 13.0407 1.16374 15.3281 2.91704 17.0804C4.68729 18.8496 7.00338 19.875 9.48576 20V15.8593C6.6749 15.6142 4.42386 13.3863 4.14516 10.5867ZM15.8548 9.41435H20C19.8591 6.96043 18.8363 4.67298 17.083 2.92076C15.3466 1.18539 13.0851 0.166127 10.6567 0.00975037V4.15593C13.4008 4.46258 15.5808 6.66219 15.8548 9.41435ZM9.99617 13.6404C12.005 13.6404 13.6335 12.0123 13.6335 10.004C13.6335 7.99571 12.005 6.36766 9.99617 6.36766C7.98733 6.36766 6.35884 7.99571 6.35884 10.004C6.35884 12.0123 7.98733 13.6404 9.99617 13.6404Z" fill="#1AB2D3"/>
</svg>
