<svg width="22" height="18" viewBox="0 0 22 18" fill="none" xmlns="http://www.w3.org/2000/svg">
<path d="M20.5881 1.42898C20.2591 1.10001 19.8638 0.935547 19.4017 0.935547H2.60186C2.13988 0.935547 1.74449 1.09997 1.41531 1.42898C1.0863 1.75802 0.921875 2.1534 0.921875 2.61542V15.3832C0.921875 15.8454 1.0863 16.2408 1.41531 16.5698C1.74449 16.8988 2.13988 17.0633 2.60186 17.0633H19.4019C19.8638 17.0633 20.2593 16.8988 20.5883 16.5698C20.9172 16.2408 21.0819 15.8454 21.0819 15.3832V2.61542C21.0819 2.1534 20.9172 1.75802 20.5881 1.42898ZM19.7376 15.3832C19.7376 15.4744 19.7045 15.5529 19.638 15.6196C19.5715 15.6858 19.4927 15.719 19.4017 15.719H2.60186C2.51091 15.719 2.43214 15.6858 2.36565 15.6196C2.29919 15.5529 2.26591 15.4744 2.26591 15.3832V2.61528C2.26591 2.52429 2.29908 2.4457 2.36565 2.37906C2.43218 2.31275 2.51095 2.27947 2.60186 2.27947H19.4019C19.4928 2.27947 19.5716 2.31275 19.638 2.37906C19.7043 2.4457 19.7376 2.52429 19.7376 2.61528V15.3832Z" fill="#98A0A9"/>
<path d="M5.62524 7.65489C6.18531 7.65489 6.66127 7.45898 7.05331 7.06694C7.44524 6.67491 7.64126 6.19898 7.64126 5.63906C7.64126 5.07895 7.44513 4.60303 7.05331 4.21096C6.66127 3.81907 6.18527 3.62305 5.62524 3.62305C5.06525 3.62305 4.58932 3.81907 4.19728 4.21096C3.80539 4.60299 3.60938 5.07892 3.60938 5.63906C3.60938 6.19898 3.80528 6.67502 4.19728 7.06694C4.58932 7.45887 5.06525 7.65489 5.62524 7.65489Z" fill="#98A0A9"/>
<path d="M8.6493 10.6806L6.96928 9.00076L3.60938 12.3606V14.3767H18.3933V9.67274L14.0253 5.30469L8.6493 10.6806Z" fill="#98A0A9"/>
</svg>
