<svg width="32" height="32" viewBox="0 0 32 32" fill="none" xmlns="http://www.w3.org/2000/svg">
<path fill-rule="evenodd" clip-rule="evenodd" d="M21.4134 20.2076L28.3693 27.1634C28.6993 27.4935 28.6993 28.0393 28.3693 28.3693C28.2043 28.5407 27.9822 28.6232 27.7664 28.6232C27.5506 28.6232 27.3285 28.5343 27.1634 28.3693L20.2076 21.4134C18.0624 23.2793 15.2636 24.409 12.2045 24.409C5.47712 24.409 0 18.9319 0 12.2045C0 5.47712 5.47077 0 12.2045 0C18.9319 0 24.409 5.47077 24.409 12.2045C24.409 15.2636 23.2793 18.0624 21.4134 20.2076ZM12 2C6.48881 2 2 6.4814 2 11.997C2 17.5125 6.48881 22 12 22C17.5172 22 22 17.5065 22 11.997C22 6.48745 17.5172 2 12 2Z" fill="#D1004A"/>
<path d="M19.7033 8.55806C19.1598 7.14346 18.2135 5.93399 16.9665 5.0605C15.6899 4.16611 14.1903 3.69336 12.63 3.69336C12.2814 3.69336 11.9988 3.976 11.9988 4.32454C11.9988 4.67308 12.2814 4.95572 12.63 4.95572C15.2241 4.95572 17.593 6.58531 18.5249 9.01087C18.6214 9.26183 18.8605 9.41584 19.1143 9.41584C19.1895 9.41584 19.2661 9.40227 19.3405 9.37367C19.6659 9.24864 19.8283 8.8835 19.7033 8.55806Z" fill="#D1004A"/>
<path d="M22.8571 25.4708C22.1359 24.7497 22.1359 23.5804 22.8571 22.8593C23.5782 22.1381 24.7475 22.1381 25.4686 22.8593L30.6917 28.0824C31.4129 28.8035 31.4129 29.9728 30.6917 30.694C29.9706 31.4151 28.8013 31.4151 28.0802 30.694L22.8571 25.4708Z" fill="#D1004A"/>
</svg>
